<svg width="100" height="100" viewBox="0 0 100 100" fill="none" xmlns="http://www.w3.org/2000/svg">
<path d="M85.1562 18.75H14.8438C11.8234 18.75 9.375 21.1984 9.375 24.2188V75.7812C9.375 78.8016 11.8234 81.25 14.8438 81.25H85.1562C88.1766 81.25 90.625 78.8016 90.625 75.7812V24.2188C90.625 21.1984 88.1766 18.75 85.1562 18.75Z" stroke="black" stroke-width="6" stroke-linejoin="round"/>
<path d="M85.1562 65.625H80.4688C77.4484 65.625 75 68.0734 75 71.0938V75.7812C75 78.8016 77.4484 81.25 80.4688 81.25H85.1562C88.1766 81.25 90.625 78.8016 90.625 75.7812V71.0938C90.625 68.0734 88.1766 65.625 85.1562 65.625Z" stroke="black" stroke-width="6" stroke-linejoin="round"/>
<path d="M85.1562 50H80.4688C77.4484 50 75 52.4484 75 55.4688V60.1562C75 63.1766 77.4484 65.625 80.4688 65.625H85.1562C88.1766 65.625 90.625 63.1766 90.625 60.1562V55.4688C90.625 52.4484 88.1766 50 85.1562 50Z" stroke="black" stroke-width="6" stroke-linejoin="round"/>
<path d="M85.1562 34.375H80.4688C77.4484 34.375 75 36.8234 75 39.8438V44.5312C75 47.5516 77.4484 50 80.4688 50H85.1562C88.1766 50 90.625 47.5516 90.625 44.5312V39.8438C90.625 36.8234 88.1766 34.375 85.1562 34.375Z" stroke="black" stroke-width="6" stroke-linejoin="round"/>
<path d="M85.1562 18.75H80.4688C77.4484 18.75 75 21.1984 75 24.2188V28.9062C75 31.9266 77.4484 34.375 80.4688 34.375H85.1562C88.1766 34.375 90.625 31.9266 90.625 28.9062V24.2188C90.625 21.1984 88.1766 18.75 85.1562 18.75Z" stroke="black" stroke-width="6" stroke-linejoin="round"/>
<path d="M19.5312 65.625H14.8438C11.8234 65.625 9.375 68.0734 9.375 71.0938V75.7812C9.375 78.8016 11.8234 81.25 14.8438 81.25H19.5312C22.5516 81.25 25 78.8016 25 75.7812V71.0938C25 68.0734 22.5516 65.625 19.5312 65.625Z" stroke="black" stroke-width="6" stroke-linejoin="round"/>
<path d="M19.5312 50H14.8438C11.8234 50 9.375 52.4484 9.375 55.4688V60.1562C9.375 63.1766 11.8234 65.625 14.8438 65.625H19.5312C22.5516 65.625 25 63.1766 25 60.1562V55.4688C25 52.4484 22.5516 50 19.5312 50Z" stroke="black" stroke-width="6" stroke-linejoin="round"/>
<path d="M19.5312 34.375H14.8438C11.8234 34.375 9.375 36.8234 9.375 39.8438V44.5312C9.375 47.5516 11.8234 50 14.8438 50H19.5312C22.5516 50 25 47.5516 25 44.5312V39.8438C25 36.8234 22.5516 34.375 19.5312 34.375Z" stroke="black" stroke-width="6" stroke-linejoin="round"/>
<path d="M19.5312 18.75H14.8438C11.8234 18.75 9.375 21.1984 9.375 24.2188V28.9062C9.375 31.9266 11.8234 34.375 14.8438 34.375H19.5312C22.5516 34.375 25 31.9266 25 28.9062V24.2188C25 21.1984 22.5516 18.75 19.5312 18.75Z" stroke="black" stroke-width="6" stroke-linejoin="round"/>
<path d="M69.5312 18.75H30.4688C27.4484 18.75 25 21.1984 25 24.2188V44.5312C25 47.5516 27.4484 50 30.4688 50H69.5312C72.5516 50 75 47.5516 75 44.5312V24.2188C75 21.1984 72.5516 18.75 69.5312 18.75Z" stroke="black" stroke-width="6" stroke-linejoin="round"/>
<path d="M69.5312 50H30.4688C27.4484 50 25 52.4484 25 55.4688V75.7812C25 78.8016 27.4484 81.25 30.4688 81.25H69.5312C72.5516 81.25 75 78.8016 75 75.7812V55.4688C75 52.4484 72.5516 50 69.5312 50Z" stroke="black" stroke-width="6" stroke-linejoin="round"/>
</svg>
